<mxfile host="app.diagrams.net" modified="2024-04-12T13:02:51.953Z" agent="Mozilla/5.0 (Windows NT 10.0; Win64; x64) AppleWebKit/537.36 (KHTML, like Gecko) Chrome/123.0.0.0 Safari/537.36" etag="q3LSt6IabGmnwrLKhIV7" version="21.8.0" type="github">
  <diagram name="Seite-1" id="Wc0Vlnrr9CLT1wBk2gI5">
    <mxGraphModel dx="733" dy="390" grid="0" gridSize="10" guides="1" tooltips="1" connect="1" arrows="1" fold="1" page="1" pageScale="1" pageWidth="827" pageHeight="1169" math="0" shadow="0">
      <root>
        <mxCell id="0" />
        <mxCell id="1" parent="0" />
        <mxCell id="aOichYzG1Xbh21g6U90i-1" value="" style="endArrow=none;html=1;rounded=0;fontSize=13;" edge="1" parent="1">
          <mxGeometry width="50" height="50" relative="1" as="geometry">
            <mxPoint x="280" y="200" as="sourcePoint" />
            <mxPoint x="360" y="200" as="targetPoint" />
          </mxGeometry>
        </mxCell>
        <mxCell id="aOichYzG1Xbh21g6U90i-2" value="" style="endArrow=none;html=1;rounded=0;fontSize=13;" edge="1" parent="1" source="aOichYzG1Xbh21g6U90i-5">
          <mxGeometry width="50" height="50" relative="1" as="geometry">
            <mxPoint x="280" y="360" as="sourcePoint" />
            <mxPoint x="280" y="200" as="targetPoint" />
          </mxGeometry>
        </mxCell>
        <mxCell id="aOichYzG1Xbh21g6U90i-3" value="" style="endArrow=none;html=1;rounded=0;fontSize=13;" edge="1" parent="1">
          <mxGeometry width="50" height="50" relative="1" as="geometry">
            <mxPoint x="280" y="360" as="sourcePoint" />
            <mxPoint x="360" y="360" as="targetPoint" />
          </mxGeometry>
        </mxCell>
        <mxCell id="aOichYzG1Xbh21g6U90i-6" value="" style="endArrow=none;html=1;rounded=0;fontSize=13;" edge="1" parent="1" target="aOichYzG1Xbh21g6U90i-5">
          <mxGeometry width="50" height="50" relative="1" as="geometry">
            <mxPoint x="280" y="360" as="sourcePoint" />
            <mxPoint x="280" y="200" as="targetPoint" />
          </mxGeometry>
        </mxCell>
        <mxCell id="aOichYzG1Xbh21g6U90i-5" value="" style="ellipse;whiteSpace=wrap;html=1;aspect=fixed;fontSize=13;" vertex="1" parent="1">
          <mxGeometry x="260" y="260" width="40" height="40" as="geometry" />
        </mxCell>
        <mxCell id="aOichYzG1Xbh21g6U90i-7" value="" style="endArrow=none;html=1;rounded=0;exitX=0.5;exitY=1;exitDx=0;exitDy=0;entryX=0.5;entryY=0;entryDx=0;entryDy=0;fontSize=13;" edge="1" parent="1" source="aOichYzG1Xbh21g6U90i-5" target="aOichYzG1Xbh21g6U90i-5">
          <mxGeometry width="50" height="50" relative="1" as="geometry">
            <mxPoint x="390" y="270" as="sourcePoint" />
            <mxPoint x="440" y="220" as="targetPoint" />
          </mxGeometry>
        </mxCell>
        <mxCell id="aOichYzG1Xbh21g6U90i-8" value="" style="triangle;whiteSpace=wrap;html=1;fontSize=13;" vertex="1" parent="1">
          <mxGeometry x="360" y="180" width="30" height="40" as="geometry" />
        </mxCell>
        <mxCell id="aOichYzG1Xbh21g6U90i-9" value="" style="endArrow=none;html=1;rounded=0;fontSize=13;" edge="1" parent="1">
          <mxGeometry width="50" height="50" relative="1" as="geometry">
            <mxPoint x="390" y="220" as="sourcePoint" />
            <mxPoint x="390" y="180" as="targetPoint" />
          </mxGeometry>
        </mxCell>
        <mxCell id="aOichYzG1Xbh21g6U90i-11" value="" style="endArrow=none;html=1;rounded=0;fontSize=13;" edge="1" parent="1" source="aOichYzG1Xbh21g6U90i-13">
          <mxGeometry width="50" height="50" relative="1" as="geometry">
            <mxPoint x="390" y="200" as="sourcePoint" />
            <mxPoint x="360" y="360" as="targetPoint" />
            <Array as="points">
              <mxPoint x="480" y="200" />
              <mxPoint x="480" y="360" />
            </Array>
          </mxGeometry>
        </mxCell>
        <mxCell id="aOichYzG1Xbh21g6U90i-14" value="" style="endArrow=none;html=1;rounded=0;fontSize=13;" edge="1" parent="1">
          <mxGeometry width="50" height="50" relative="1" as="geometry">
            <mxPoint x="390" y="200" as="sourcePoint" />
            <mxPoint x="480" y="200" as="targetPoint" />
            <Array as="points" />
          </mxGeometry>
        </mxCell>
        <mxCell id="aOichYzG1Xbh21g6U90i-13" value="" style="rounded=0;whiteSpace=wrap;html=1;fontSize=13;" vertex="1" parent="1">
          <mxGeometry x="470" y="255" width="20" height="50" as="geometry" />
        </mxCell>
        <mxCell id="aOichYzG1Xbh21g6U90i-16" value="" style="endArrow=classic;html=1;rounded=0;fontSize=13;" edge="1" parent="1">
          <mxGeometry width="50" height="50" relative="1" as="geometry">
            <mxPoint x="240" y="240" as="sourcePoint" />
            <mxPoint x="240" y="320" as="targetPoint" />
          </mxGeometry>
        </mxCell>
        <mxCell id="aOichYzG1Xbh21g6U90i-17" value="" style="endArrow=classic;html=1;rounded=0;fontSize=13;" edge="1" parent="1">
          <mxGeometry width="50" height="50" relative="1" as="geometry">
            <mxPoint x="320" y="160" as="sourcePoint" />
            <mxPoint x="440" y="160" as="targetPoint" />
          </mxGeometry>
        </mxCell>
        <mxCell id="aOichYzG1Xbh21g6U90i-18" value="" style="endArrow=classic;html=1;rounded=0;fontSize=13;" edge="1" parent="1">
          <mxGeometry width="50" height="50" relative="1" as="geometry">
            <mxPoint x="520" y="240" as="sourcePoint" />
            <mxPoint x="520" y="320" as="targetPoint" />
          </mxGeometry>
        </mxCell>
        <mxCell id="aOichYzG1Xbh21g6U90i-19" value="" style="endArrow=classic;html=1;rounded=0;strokeColor=#ff0000;fontSize=13;" edge="1" parent="1">
          <mxGeometry width="50" height="50" relative="1" as="geometry">
            <mxPoint x="320" y="199.66" as="sourcePoint" />
            <mxPoint x="320" y="199.66" as="targetPoint" />
            <Array as="points">
              <mxPoint x="280" y="199.66" />
            </Array>
          </mxGeometry>
        </mxCell>
        <mxCell id="aOichYzG1Xbh21g6U90i-20" value="&lt;i style=&quot;font-size: 13px;&quot;&gt;U&lt;/i&gt;" style="text;strokeColor=none;align=center;fillColor=none;html=1;verticalAlign=middle;whiteSpace=wrap;rounded=0;fontSize=13;" vertex="1" parent="1">
          <mxGeometry x="195" y="265" width="60" height="30" as="geometry" />
        </mxCell>
        <mxCell id="aOichYzG1Xbh21g6U90i-21" value="&lt;i style=&quot;&quot;&gt;U&lt;sub style=&quot;&quot;&gt;&lt;font style=&quot;font-size: 12px;&quot;&gt;R&lt;/font&gt;&lt;/sub&gt;&lt;/i&gt;" style="text;strokeColor=none;align=center;fillColor=none;html=1;verticalAlign=middle;whiteSpace=wrap;rounded=0;fontSize=13;" vertex="1" parent="1">
          <mxGeometry x="505" y="265" width="60" height="30" as="geometry" />
        </mxCell>
        <mxCell id="aOichYzG1Xbh21g6U90i-22" value="&lt;i style=&quot;&quot;&gt;U&lt;sub style=&quot;&quot;&gt;&lt;font style=&quot;font-size: 12px;&quot;&gt;G&lt;/font&gt;&lt;/sub&gt;&lt;/i&gt;" style="text;strokeColor=none;align=center;fillColor=none;html=1;verticalAlign=middle;whiteSpace=wrap;rounded=0;fontSize=13;" vertex="1" parent="1">
          <mxGeometry x="345" y="130" width="60" height="30" as="geometry" />
        </mxCell>
        <mxCell id="aOichYzG1Xbh21g6U90i-23" value="&lt;i style=&quot;font-size: 13px;&quot;&gt;I&lt;/i&gt;" style="text;strokeColor=none;align=center;fillColor=none;html=1;verticalAlign=middle;whiteSpace=wrap;rounded=0;fontSize=13;" vertex="1" parent="1">
          <mxGeometry x="271" y="169" width="60" height="30" as="geometry" />
        </mxCell>
        <mxCell id="aOichYzG1Xbh21g6U90i-24" value="&lt;i style=&quot;font-size: 13px;&quot;&gt;R&lt;/i&gt;" style="text;strokeColor=none;align=center;fillColor=none;html=1;verticalAlign=middle;whiteSpace=wrap;rounded=0;fontSize=13;" vertex="1" parent="1">
          <mxGeometry x="418" y="268" width="60" height="30" as="geometry" />
        </mxCell>
        <mxCell id="aOichYzG1Xbh21g6U90i-25" value="Gleichrichtung" style="text;strokeColor=none;align=center;fillColor=none;html=1;verticalAlign=middle;whiteSpace=wrap;rounded=0;fontSize=13;" vertex="1" parent="1">
          <mxGeometry x="324" y="223" width="102" height="30" as="geometry" />
        </mxCell>
      </root>
    </mxGraphModel>
  </diagram>
</mxfile>
